<svg width="208" height="319" xmlns="http://www.w3.org/2000/svg">

 <g>
  <title>Layer 1</title>
  <path id="svg_1" d="m41.64149,318.20167c-12.72717,-4.77008 -9.45168,-19.78519 -10.10037,-30.46587c-0.14958,-41.52094 -0.03945,-83.04254 -0.0725,-124.56375c22.7458,-0.33968 45.4916,-0.81491 68.24094,-0.75016c-0.02475,47.68405 0.62064,95.37911 -0.15524,143.05455c-0.60932,12.78044 -14.8427,14.41908 -24.79942,13.18289c-11.03927,0.00398 -22.07809,-0.16678 -33.11342,-0.45766zm-32.78949,-124.26735c-7.2026,-0.77512 -13.16367,-18.8673 -4.70352,-18.82386c6.66139,-0.08701 13.32276,-0.17404 19.98416,-0.26106c1.07535,8.78912 -1.70813,21.3047 -13.21893,19.51143l-2.06171,-0.42649l0,0l0,-0.00001zm106.6335,-0.00708c-7.45595,-0.93464 -11.48326,-16.50124 -6.05683,-18.79884c7.11933,-0.093 14.23867,-0.18601 21.35799,-0.27901c1.07722,8.79198 -1.71348,21.31469 -13.22887,19.50907l-2.07226,-0.43119c0,0 -0.00003,0 -0.00003,0l0,-0.00002zm-114.922,-60.49795c0.5865,-14.53989 -1.15953,-29.3837 1.8055,-43.69261c4.3415,-11.14161 14.87246,-21.17346 27.0509,-22.10418c25.207,0.21341 50.48044,-1.07606 75.6338,0.58108c14.99682,3.31663 26.96299,18.17366 25.53924,33.81771c0.34753,23.24043 0.1703,46.4857 0.25631,69.72841c-7.92116,0.10183 -15.84234,0.20365 -23.76347,0.30549c0,-20.91952 0,-41.83905 0,-62.75859c-4.6437,-5.44917 -8.59883,1.8733 -6.99946,6.53258c-0.01812,14.11274 -0.03624,28.22548 -0.05439,42.33822c-22.94849,0 -45.89698,0 -68.84547,0c-0.18811,-16.35125 -0.3762,-32.70251 -0.56431,-49.05376c-4.49934,-5.1601 -7.66215,1.91135 -6.23238,6.20132c-0.07583,18.81158 -0.15167,37.62314 -0.2275,56.43474c-7.92722,0.10187 -15.85445,0.20378 -23.78168,0.30564c0.06098,-12.87867 0.12189,-25.75741 0.1829,-38.63604l0,-0.00002zm60.24908,-75.74684c-12.2108,-2.21079 -21.64602,-13.59322 -21.93701,-25.99039c17.65797,0 35.31593,0 52.97391,0c0.62487,16.13735 -15.46797,28.93904 -31.03689,25.99039zm-27.36889,-36.17713c3.00755,-3.01981 5.58936,-7.06767 10.43073,-5.6593c15.99169,0 31.98337,0 47.97504,0c-0.51444,3.48661 0.97628,8.98413 -0.68697,11.3186c-21.11358,0 -42.22714,0 -63.34072,0c1.87397,-1.88643 3.74795,-3.77287 5.6219,-5.6593l0.00002,0.00001zm20.17399,-10.00886c-4.93769,-0.06556 -9.87538,-0.13112 -14.81307,-0.19668c0.51556,-3.47922 -0.97744,-8.97276 0.68698,-11.2998c17.45261,0 34.90526,0 52.3579,0c-0.51441,3.48686 0.97628,8.98368 -0.68697,11.31892c-12.51758,-0.08249 -25.02669,0.4836 -37.54483,0.17756l-0.00001,0zm26.35171,307.03374c-6.99439,-2.40962 -12.15177,-9.76074 -10.7742,-17.21863c-0.24751,-35.4842 0.32706,-70.99044 -0.66608,-106.45684c-8.03984,-9.01051 -5.68621,12.82631 -5.99422,17.8154c-0.43432,31.96812 0.70407,64.0142 -0.84419,95.93256c-1.10227,7.29955 -15.94422,11.13438 -2.5304,9.81398c6.93403,0.08795 13.87655,0.39389 20.80912,0.11354l-0.00001,-0.00001z" stroke="#000" fill="#fff"/>
  <path stroke="#000" id="svg_2" d="m195.72031,128.83318c8.45657,-12.20347 10.1564,-28.857 5.55603,-42.8625l-16.97729,24.84903l-16.73543,-4.08393l-5.54527,-20.23408l16.93435,-24.79132c-11.64844,-3.67829 -24.48147,0.76238 -32.9008,12.91756c-8.87923,12.81452 -10.33232,30.56014 -4.83654,44.95771l-44.25282,63.8725c-4.70872,6.79077 -4.13508,17.09031 1.27533,22.99809c5.41041,5.90362 13.61468,5.19009 18.32177,-1.60075l44.20098,-63.80949c12.16721,4.92226 26.03938,0.65997 34.95969,-12.21283l0,-0.00001z" fill="#fff"/>
 </g>
</svg>